<?xml version="1.0" encoding="utf-8"?>
<!-- Generator: Adobe Illustrator 17.1.0, SVG Export Plug-In . SVG Version: 6.00 Build 0)  -->
<!DOCTYPE svg PUBLIC "-//W3C//DTD SVG 1.1//EN" "http://www.w3.org/Graphics/SVG/1.1/DTD/svg11.dtd">
<svg version="1.1" id="Layer_1" xmlns="http://www.w3.org/2000/svg" xmlns:xlink="http://www.w3.org/1999/xlink" x="0px" y="0px"
	 viewBox="729 171.3 73 362" enable-background="new 729 171.3 73 362" xml:space="preserve">
<g>
	<g>
		<path fill="#FFFFFF" d="M762.1,185.7c-7.9-0.5-15.5,5.7-15.5,18.4v317.1c0,0.8,0.1,1.8,0.5,2.5h-0.5c-4,0-7.2-3.3-7.2-7.2V188.1
			c0-4,3.3-7.2,7.2-7.2h38.6c3.2,0,5.8,2.1,6.8,4.8h-29.9V185.7z"/>
		<path fill="#FBF393" d="M785.2,523.6h-38.3c-0.3-0.7-0.5-1.5-0.5-2.5v-317c0-12.7,7.6-19,15.5-18.4h30c-0.1-0.4-0.3-0.7-0.3-1.1
			c0.5,1.1,0.8,2.1,0.8,3.5v328.3C792.4,520.3,789.2,523.6,785.2,523.6z"/>
		<path fill="#313131" d="M801.9,186.1c0-0.3,0-0.5-0.1-0.8c0-0.4-0.1-0.7-0.1-1.1c0-0.3-0.1-0.7-0.3-1c0-0.1-0.1-0.4-0.1-0.5
			c-0.3-0.8-0.7-1.8-1-2.5c0,0,0-0.1-0.1-0.1c-0.1-0.5-0.5-0.8-0.8-1.2c0,0,0,0-0.1-0.1c-1.4-2.1-3.5-4-5.7-5.4h-0.1
			c-2.5-1.4-5.1-2.1-8.3-2.1h-38.6c-2.9,0-5.7,0.7-8.3,2.1h-0.1c-2.2,1.2-4.1,3.1-5.7,5.4c0,0,0,0-0.1,0.1c-0.3,0.4-0.5,0.8-0.8,1.2
			c0,0,0,0.1-0.1,0.1c-0.3,0.7-0.7,1.5-1,2.5c0,0.1-0.1,0.4-0.1,0.5c-0.1,0.4-0.1,0.7-0.3,1c0,0.4-0.1,0.7-0.1,1.1
			c0,0.3-0.1,0.5-0.1,0.8c0,0.5-0.1,331-0.1,331.2c0.5,9,7.8,16,16.9,16h38.6c9,0,16.3-7.1,16.9-16
			C802.1,517.1,802.1,186.5,801.9,186.1z M792.4,188.1V245h-23.8c-1.4,0-2.5,1-2.5,2.5c0,1.4,1,2.4,2.5,2.4h23.8v17.3h-16.3
			c-0.7,0-1.2,0.5-1.2,1.2l0,0l0,0c0,0.7,0.5,1.2,1.2,1.2h16.3v19.4h-32.5c-1.4,0-2.5,1-2.5,2.4c0,1.4,1,2.5,2.5,2.5h32.5v17h-16.3
			c-0.7,0-1.2,0.5-1.2,1.2c0,0.7,0.5,1.2,1.2,1.2h16.3v16.7h-23.8c-1.4,0-2.5,1-2.5,2.5c0,1.4,1,2.5,2.5,2.5h23.8v16.9h-16.3
			c-0.7,0-1.2,0.5-1.2,1.2s0.5,1.2,1.2,1.2h16.3v19.4h-32.5c-1.4,0-2.5,1.1-2.5,2.5c0,1.4,1,2.5,2.5,2.5h32.5v17h-16.3
			c-0.7,0-1.2,0.5-1.2,1.2s0.5,1.2,1.2,1.2h16.3v16.7h-23.8c-1.4,0-2.5,1-2.5,2.5s1,2.5,2.5,2.5h23.8v16.9h-16.3
			c-0.7,0-1.2,0.5-1.2,1.2c0,0.7,0.5,1.2,1.2,1.2h16.3v19.4h-32.5c-1.4,0-2.5,1-2.5,2.5s1,2.5,2.5,2.5h32.5v17h-16.3
			c-0.7,0-1.2,0.5-1.2,1.2c0,0.7,0.5,1.2,1.2,1.2h16.3v16.7h-23.8c-1.4,0-2.5,1-2.5,2.5c0,1.4,1,2.4,2.5,2.4h23.8V516
			c0,4-3.3,7.2-7.2,7.2h-38.6c-4,0-7.2-3.3-7.2-7.2v-328c0-4,3.3-7.2,7.2-7.2h38.6C789.2,180.8,792.4,184.1,792.4,188.1z"/>
		<circle fill="#313131" cx="767.2" cy="209.3" r="9.7"/>
	</g>
</g>
</svg>
